HIERARCHY
ROOT root
{
	OFFSET	0	13.1	24.9
	CHANNELS 6  Xposition Yposition Zposition Xrotation Yrotation Zrotation
	JOINT spine_1
	{
		OFFSET	0	9.99999	0
		CHANNELS 3  Xrotation Yrotation Zrotation
		JOINT spine_2
		{
			OFFSET	0	112	-10
			CHANNELS 3  Xrotation Yrotation Zrotation
			JOINT spine_3
			{
				OFFSET	0	206.5	19.3
				CHANNELS 3  Xrotation Yrotation Zrotation
				JOINT spine_4
				{
					OFFSET	0	110.4	14.6
					CHANNELS 3  Xrotation Yrotation Zrotation
					JOINT neck_1
					{
						OFFSET	0	71.8	-50.3
						CHANNELS 3  Xrotation Yrotation Zrotation
						JOINT neck_2
						{
							OFFSET	0	86.2	-25.8
							CHANNELS 3  Xrotation Yrotation Zrotation
							JOINT head_ee
							{
								OFFSET	0	179.8	-8.7
								CHANNELS 3  Xrotation Yrotation Zrotation
								End Site
								{
									OFFSET	1	0	0
								}
							}
						}
					}
					JOINT left_clavicle
					{
						OFFSET	-43.2	22.4	-70.8
						CHANNELS 3  Xrotation Yrotation Zrotation
						JOINT left_shoulder
						{
							OFFSET	-93.9	-5.79999	48.7
							CHANNELS 3  Xrotation Yrotation Zrotation
							JOINT left_elbow
							{
								OFFSET	-291.4	-30.8	15.2
								CHANNELS 3  Xrotation Yrotation Zrotation
								JOINT left_lowarm_twist
								{
									OFFSET	-110.7	-3.89999	13.6
									CHANNELS 3  Xrotation Yrotation Zrotation
									JOINT left_hand
									{
										OFFSET	-110.7	-3.89999	13.6
										CHANNELS 3  Xrotation Yrotation Zrotation
										JOINT left_ee
										{
											OFFSET	-80.8	-5.10001	12.1
											CHANNELS 3  Xrotation Yrotation Zrotation
											End Site
											{
												OFFSET	1	0	0
											}
										}
									}
								}
							}
						}
					}
					JOINT right_clavicle
					{
						OFFSET	43.2	22.4	-70.8
						CHANNELS 3  Xrotation Yrotation Zrotation
						JOINT right_shoulder
						{
							OFFSET	93.9	-5.79999	48.7
							CHANNELS 3  Xrotation Yrotation Zrotation
							JOINT right_elbow
							{
								OFFSET	291.4	-30.8	15.2
								CHANNELS 3  Xrotation Yrotation Zrotation
								JOINT right_lowarm_twist
								{
									OFFSET	110.7	-3.89999	13.6
									CHANNELS 3  Xrotation Yrotation Zrotation
									JOINT right_hand
									{
										OFFSET	110.7	-3.89999	13.6
										CHANNELS 3  Xrotation Yrotation Zrotation
										JOINT right_ee
										{
											OFFSET	80.8	-5.10001	12.1
											CHANNELS 3  Xrotation Yrotation Zrotation
											End Site
											{
												OFFSET	1	0	0
											}
										}
									}
								}
							}
						}
					}
				}
			}
		}
	}
	JOINT left_hip
	{
		OFFSET	-82.8	-127.5	0.300001
		CHANNELS 3  Xrotation Yrotation Zrotation
		JOINT left_knee
		{
			OFFSET	-28.2	-396.7	2.2
			CHANNELS 3  Xrotation Yrotation Zrotation
			JOINT left_ankle
			{
				OFFSET	-11.7	-411.3	35.4
				CHANNELS 3  Xrotation Yrotation Zrotation
				JOINT left_toes
				{
					OFFSET	0	-60	-88.6
					CHANNELS 3  Xrotation Yrotation Zrotation
					JOINT left_foot_ee
					{
						OFFSET	-22.5	-16.5	-42.2
						CHANNELS 3  Xrotation Yrotation Zrotation
						End Site
						{
							OFFSET	1	0	0
						}
					}
				}
			}
		}
	}
	JOINT right_hip
	{
		OFFSET	82.8	-127.5	0.300001
		CHANNELS 3  Xrotation Yrotation Zrotation
		JOINT right_knee
		{
			OFFSET	28.2	-396.7	2.2
			CHANNELS 3  Xrotation Yrotation Zrotation
			JOINT right_ankle
			{
				OFFSET	11.7	-411.3	35.4
				CHANNELS 3  Xrotation Yrotation Zrotation
				JOINT right_toes
				{
					OFFSET	0	-60	-88.6
					CHANNELS 3  Xrotation Yrotation Zrotation
					JOINT right_foot_ee
					{
						OFFSET	22.5	-16.5	-42.2
						CHANNELS 3  Xrotation Yrotation Zrotation
						End Site
						{
							OFFSET	1	0	0
						}
					}
				}
			}
		}
	}
}
MOTION
Frames: 14
Frame Time: 0.02
3177.02 653.055 -1669.29 -45.7150926864 86.1926065179 49.6891307407 2.60185 -0.0794159 -2.01802 2.60411 0.0491303 -2.01899 2.60187 0.382915 -1.98296 2.59639 0.0650034 -2.01854 -10.7176 15.8244 12.0427 -10.5049 21.9429 15.7001 -0.0 0.0 -0.0 3.69418 24.7354 7.79223 -33.4683 -11.311 68.8498 0.218551 -6.17914 0.0117964 16.1059 0.283677 -2.03106 2.51461 29.4915 25.9199 -0.0 0.0 -0.0 8.21423 -1.28818 -15.9872 18.8243 24.7308 -74.3713 1.21123 30.9629 -0.335494 -55.7462 4.75898 -4.94918 -2.51329 -3.92794 15.1094 0.0 0.0 0.0 28.6574 -14.7827 -6.5671 -1.90902 0.0738824 0.283639 0.404829 29.5183 -0.0634476 -8.32928 0.0 0.0 -0.0 0.0 -0.0 -19.8754 -3.49458 -2.4684 -7.519 -0.23577 -1.12903 39.5419 11.026 5.01161 -26.8812 0.0 0.0 0.0 0.0 0.0 
3177.02 653.055 -1669.29 -48.4717412418 86.3594077732 52.4516070721 2.60185 -0.0794159 -2.01802 2.60411 0.0491303 -2.01899 2.60187 0.382915 -1.98296 2.59639 0.0650034 -2.01854 -10.7176 15.8244 12.0427 -10.5049 21.9429 15.7001 -0.0 0.0 -0.0 3.69418 24.7354 7.79223 -33.4683 -11.311 68.8498 0.218551 -6.17914 0.0117964 16.1059 0.283677 -2.03106 2.51461 29.4915 25.9199 -0.0 0.0 -0.0 8.21423 -1.28818 -15.9872 18.8243 24.7308 -74.3713 1.21123 30.9629 -0.335494 -55.7462 4.75898 -4.94918 -2.51329 -3.92794 15.1094 0.0 0.0 0.0 28.6574 -14.7827 -6.5671 -1.90902 0.0738824 0.283639 0.404829 29.5183 -0.0634476 -8.32928 0.0 0.0 -0.0 0.0 -0.0 -19.8754 -3.49458 -2.4684 -7.519 -0.23577 -1.12903 39.5419 11.026 5.01161 -26.8812 0.0 0.0 0.0 0.0 0.0 
3148.78929798 656.351 -1660.17677156 -50.5138297077 86.3271838782 54.6247899898 2.87803 -0.126743 -2.08143 2.88044 0.00593158 -2.08528 2.87952 0.341309 -2.05718 2.87362 0.0122062 -2.08525 -10.9746 16.2192 12.9754 -10.7096 22.1534 16.7268 -0.0 0.0 -0.0 3.94861 24.3246 8.13956 -33.3404 -11.3701 68.7036 0.21379 -6.04555 0.0112895 15.6673 0.283563 -1.97505 2.39252 29.8631 25.2475 -0.0 0.0 -0.0 7.24882 -2.83861 -14.0566 17.0664 25.8144 -75.0223 1.18114 30.3309 -0.320154 -55.9303 4.78141 -4.95656 -2.08999 -3.01696 12.6684 0.0 0.0 0.0 28.7404 -16.1449 -5.41922 -5.37715 0.183748 0.804475 -1.018 29.9176 0.160457 -6.50836 0.0 0.0 -0.0 0.0 -0.0 -21.4214 -3.52553 -2.02818 -7.79647 -0.24162 -1.17121 36.579 10.9877 4.73993 -27.1562 0.0 0.0 0.0 0.0 0.0 
3126.08531982 659.779 -1652.72995761 -54.2557746739 86.2210066239 58.3150639409 3.04621 -0.22734 -2.05009 3.04855 -0.0964547 -2.06039 3.05126 0.23004 -2.04979 3.04541 -0.0965018 -2.06039 -10.8061 16.723 12.6844 -10.5757 23.2561 16.5577 -0.0 0.0 -0.0 4.94263 23.9967 9.51312 -32.717 -11.556 68.8224 0.220946 -6.24632 0.0120556 14.6986 0.281792 -1.85134 1.70088 29.427 21.0556 -0.0 0.0 -0.0 6.70285 -3.93976 -12.9908 15.7965 26.5181 -75.4349 1.15263 29.7244 -0.305885 -54.5132 4.60936 -4.89788 -1.78248 -2.40369 10.8755 0.0 0.0 0.0 28.3405 -17.2567 -4.65847 -7.02547 0.22486 1.05408 5.9714 28.7103 -0.91849 -5.03993 0.0 0.0 -0.0 0.0 -0.0 -21.0741 -1.8577 -1.47875 -8.1041 -0.247867 -1.218 30.1197 10.1119 4.06188 -28.4643 0.0 0.0 0.0 0.0 0.0 
3093.0829779 665.667 -1641.09855905 -43.5933865334 85.2290220055 47.8482987386 3.16975 -0.10499 -2.17488 3.17239 0.0335822 -2.17715 3.17014 0.37253 -2.14532 3.16371 0.0291251 -2.17721 -14.3357 16.4485 13.382 -14.2456 23.4042 17.857 -0.0 0.0 -0.0 6.16766 23.4675 11.2585 -30.3043 -13.3442 68.3046 0.256555 -7.24305 0.0162379 14.4019 0.280831 -1.81345 1.09955 29.2521 17.5536 -0.0 0.0 -0.0 5.73576 -5.08232 -11.1605 13.2555 26.8108 -74.9103 1.00882 26.5527 -0.238042 -53.7434 4.51651 -4.86422 -0.711616 1.71353 5.50319 0.0 0.0 0.0 28.4787 -18.5387 -4.05498 -13.0771 0.313873 1.97798 10.3812 27.1487 -1.56112 -3.10298 0.0 0.0 -0.0 0.0 -0.0 -20.7325 -1.4766 -1.33781 -7.26777 -0.230297 -1.09087 22.2764 8.01529 3.11356 -29.2635 0.0 0.0 0.0 0.0 0.0 
3052.05466268 677.529 -1633.93947273 -40.7335218838 84.2068945191 45.4149287088 3.33993 -0.222561 -2.40402 3.34314 -0.0691815 -2.4133 3.34475 0.300484 -2.39553 3.33675 -0.0815026 -2.41292 -15.0978 16.6724 13.399 -15.0786 24.0604 18.1282 -0.0 0.0 -0.0 7.24776 23.5274 12.794 -27.4181 -15.2655 67.6687 0.34324 -9.64998 0.0289735 13.5393 0.276923 -1.70335 0.300272 28.9143 12.9715 -0.0 0.0 -0.0 3.92587 -5.47843 -7.8177 10.309 26.6489 -75.8161 0.917977 24.4528 -0.19892 -52.8399 4.40812 -4.82313 0.0724679 7.42428 2.66232 0.0 0.0 0.0 27.4169 -19.007 -4.1195 -16.4372 0.321045 2.49339 15.8209 25.7439 -2.31633 -3.06014 0.0 0.0 -0.0 0.0 -0.0 -17.9287 -0.756692 -0.111677 -14.8782 -0.321476 -2.2542 16.1862 5.55133 2.30606 -30.5582 0.0 0.0 0.0 0.0 0.0 
3052.01850983 677.529 -1634.06752472 -40.3588434094 84.1622872953 45.0383120169 3.33993 -0.222561 -2.40402 3.34314 -0.0691815 -2.4133 3.34475 0.300484 -2.39553 3.33675 -0.0815026 -2.41292 -15.0978 16.6724 13.399 -15.0786 24.0604 18.1282 -0.0 0.0 -0.0 7.24776 23.5274 12.794 -27.4181 -15.2655 67.6687 0.34324 -9.64998 0.0289735 13.5393 0.276923 -1.70335 0.300272 28.9143 12.9715 -0.0 0.0 -0.0 3.92587 -5.47843 -7.8177 10.309 26.6489 -75.8161 0.917977 24.4528 -0.19892 -52.8399 4.40812 -4.82313 0.0724679 7.42428 2.66232 0.0 0.0 0.0 27.4169 -19.007 -4.1195 -16.4372 0.321045 2.49339 15.8209 25.7439 -2.31633 -3.06014 0.0 0.0 -0.0 0.0 -0.0 -17.9287 -0.756692 -0.111677 -14.8782 -0.321476 -2.2542 16.1862 5.55133 2.30606 -30.5582 0.0 0.0 0.0 0.0 0.0 
3051.77712073 677.529 -1634.93572078 -37.9666234455 83.8539681157 42.6329634286 3.33993 -0.222561 -2.40402 3.34314 -0.0691815 -2.4133 3.34475 0.300484 -2.39553 3.33675 -0.0815026 -2.41292 -15.0978 16.6724 13.399 -15.0786 24.0604 18.1282 -0.0 0.0 -0.0 7.24776 23.5274 12.794 -27.4181 -15.2655 67.6687 0.34324 -9.64998 0.0289735 13.5393 0.276923 -1.70335 0.300272 28.9143 12.9715 -0.0 0.0 -0.0 3.92587 -5.47843 -7.8177 10.309 26.6489 -75.8161 0.917977 24.4528 -0.19892 -52.8399 4.40812 -4.82313 0.0724679 7.42428 2.66232 0.0 0.0 0.0 27.4169 -19.007 -4.1195 -16.4372 0.321045 2.49339 15.8209 25.7439 -2.31633 -3.06014 0.0 0.0 -0.0 0.0 -0.0 -17.9287 -0.756692 -0.111677 -14.8782 -0.321476 -2.2542 16.1862 5.55133 2.30606 -30.5582 0.0 0.0 0.0 0.0 0.0 
3028.13314718 681.843 -1631.52673107 -32.2225270232 83.0314893568 37.3428585231 3.36191 -0.150619 -2.6509 3.36582 0.0183096 -2.65511 3.36333 0.423187 -2.62125 3.35374 0.00405037 -2.65517 -14.2368 16.9714 12.9534 -14.2239 24.6429 17.6232 -0.0 0.0 -0.0 7.67129 23.5094 13.4057 -26.3783 -16.8161 67.2817 0.464135 -12.9486 0.0526707 12.71 0.271605 -1.59756 0.0113555 28.9463 11.3878 -0.0 0.0 -0.0 3.31283 -5.8444 -6.71195 8.04913 25.8205 -75.4833 0.85713 23.0057 -0.174433 -52.4445 4.36088 -4.80461 0.340056 9.38922 1.69239 0.0 0.0 0.0 25.2208 -19.0029 -4.35059 -17.024 0.319197 2.5834 19.0048 24.8117 -2.7342 -2.24784 0.0 0.0 -0.0 0.0 -0.0 -15.1463 -0.361102 -0.0962989 -19.3229 -0.30308 -2.93574 14.1135 4.74695 2.02257 -31.4528 0.0 0.0 0.0 0.0 0.0 
3006.31542702 693.153 -1632.72725521 -26.0230200279 82.7707923858 31.4963501497 3.33211 -0.437419 -2.80531 3.33645 -0.258097 -2.82743 3.34748 0.176805 -2.83367 3.33638 -0.272757 -2.82606 -13.6298 17.3473 13.1989 -13.573 25.0287 17.8265 -0.0 0.0 -0.0 7.74453 23.7184 13.4866 -25.7281 -18.0344 67.4032 0.678118 -18.5683 0.110855 12.1533 0.267175 -1.52659 -0.181939 28.8174 10.2816 -0.0 0.0 -0.0 3.1831 -6.55148 -6.51212 6.60558 24.7691 -75.3077 0.737073 20.0584 -0.130355 -52.1885 4.33037 -4.79244 0.526447 10.2455 0.799852 0.0 0.0 0.0 23.0548 -18.8561 -4.10688 -16.8646 0.31979 2.55895 19.1698 25.6125 -2.76862 -2.20539 0.0 0.0 -0.0 0.0 -0.0 -12.0338 -0.164854 0.0471583 -25.128 -0.199638 -3.82014 12.3094 4.31873 1.77425 -32.3009 0.0 0.0 0.0 0.0 0.0 
2991.04630659 696.382 -1631.29337141 -34.7834430951 84.1139471411 40.9515880245 3.29879 -0.531772 -2.85493 3.30326 -0.349105 -2.88295 3.31913 0.0966733 -2.90239 3.30756 -0.362723 -2.88127 -13.6933 16.9475 12.9467 -13.6385 24.4342 17.4807 -0.0 0.0 -0.0 8.23483 24.351 14.1087 -23.0867 -19.2392 66.4661 0.948724 -25.1717 0.211823 11.5355 0.261452 -1.44788 -0.398764 28.4999 8.97781 -0.0 0.0 -0.0 2.2352 -7.35752 -4.85798 4.64207 24.8427 -74.9977 0.654346 17.9599 -0.103405 -52.0961 4.31937 -4.78802 0.708853 11.7772 0.226525 0.0 0.0 0.0 22.1825 -18.851 -4.05558 -14.6798 0.321064 2.22377 19.5699 24.0697 -2.79781 -2.31036 0.0 0.0 -0.0 0.0 -0.0 -10.5598 0.0790221 -0.871846 -27.9053 -0.11858 -4.23863 12.937 4.43774 1.86085 -32.3448 0.0 0.0 0.0 0.0 0.0 
2981.61161328 698.356 -1629.43493635 -44.1841356039 84.6903186624 50.5007707291 3.33278 -0.646385 -2.95663 3.33753 -0.457023 -2.99173 3.35957 0.00441736 -3.0264 3.34711 -0.473384 -2.98918 -13.6915 16.7475 12.9545 -13.6217 24.0434 17.4217 -0.0 0.0 -0.0 8.43831 24.9012 14.3203 -21.3639 -20.0892 66.6508 1.19071 -30.5327 0.325 11.0938 0.256841 -1.39166 -0.533809 28.1724 8.11391 -0.0 0.0 -0.0 1.67006 -8.63745 -3.95364 3.23431 24.3943 -74.1542 0.593308 16.3786 -0.0853847 -52.0004 4.30798 -4.78341 0.823605 12.6098 -0.187707 0.0 0.0 0.0 21.5148 -18.7151 -3.63376 -12.3803 0.308601 1.87119 18.3394 23.8477 -2.6319 -2.67109 0.0 0.0 -0.0 0.0 -0.0 -8.02914 0.136151 -1.02799 -31.5529 0.0185417 -4.78153 13.2845 4.54868 1.90891 -32.4203 0.0 0.0 0.0 0.0 0.0 
2959.90931068 701.805 -1628.72371072 -59.3033388984 85.6203541641 65.8875951873 3.39057 -0.674892 -3.02494 3.39553 -0.481133 -3.0617 3.41926 -0.0120039 -3.09922 3.40621 -0.501085 -3.0585 -13.709 15.2414 11.4813 -13.6801 22.0597 15.5863 -0.0 0.0 -0.0 8.83502 24.6352 14.9267 -19.8514 -20.7571 66.5433 1.38199 -34.3935 0.42773 11.0 0.255806 -1.37972 -0.50756 25.8931 7.37856 -0.0 0.0 -0.0 0.944769 -12.6018 -3.05721 1.13559 24.238 -73.4742 0.600687 16.5712 -0.0874773 -53.2462 4.45678 -4.84182 0.672507 12.8812 0.946807 0.0 0.0 0.0 18.3643 -18.5026 -3.74201 -11.0242 0.294623 1.66359 20.2077 23.1388 -2.86759 -3.28432 0.0 0.0 -0.0 0.0 -0.0 -4.88837 0.211793 -1.51336 -36.0416 0.234328 -5.43619 13.4589 3.62849 1.92616 -33.043 0.0 0.0 0.0 0.0 0.0 
2942.36569135 702.401 -1631.10750438 -52.2860488715 85.1705179657 58.8831934983 3.51923 -0.754851 -3.10299 3.52441 -0.55597 -3.14467 3.55267 -0.0809678 -3.19237 3.53893 -0.583876 -3.13962 -13.7234 14.9687 11.6038 -13.6674 21.4639 15.6131 -0.0 0.0 -0.0 9.38849 24.3014 15.7828 -18.3342 -21.3793 66.448 1.5422 -37.3759 0.521673 10.9502 0.255248 -1.37338 -0.494906 24.4036 6.86797 -0.0 0.0 -0.0 0.464048 -15.2711 -2.53577 -0.335415 24.1949 -72.8423 0.614464 16.9297 -0.0914478 -54.2911 4.58252 -4.8883 0.696587 13.207 0.925236 0.0 0.0 0.0 16.6657 -18.3222 -3.50557 -9.74542 0.276944 1.46817 21.4609 22.9697 -3.02665 -3.32013 0.0 0.0 -0.0 0.0 -0.0 -2.36448 0.6973 -1.86854 -39.4806 0.434052 -5.92544 14.4961 3.17566 2.06249 -33.1761 0.0 0.0 0.0 0.0 0.0 
